<svg width="259" height="58" viewBox="0 0 259 58" fill="none" xmlns="http://www.w3.org/2000/svg">
<path d="M77.6465 20.4668C75.5957 20.4668 74.0078 21.2402 72.8828 22.7871C71.7578 24.3223 71.1953 26.4668 71.1953 29.2207C71.1953 34.9512 73.3457 37.8164 77.6465 37.8164C79.4512 37.8164 81.6367 37.3652 84.2031 36.4629V41.0332C82.0938 41.9121 79.7383 42.3516 77.1367 42.3516C73.3984 42.3516 70.5391 41.2207 68.5586 38.959C66.5781 36.6855 65.5879 33.4277 65.5879 29.1855C65.5879 26.5137 66.0742 24.1758 67.0469 22.1719C68.0195 20.1562 69.4141 18.6152 71.2305 17.5488C73.0586 16.4707 75.1973 15.9316 77.6465 15.9316C80.1426 15.9316 82.6504 16.5352 85.1699 17.7422L83.4121 22.1719C82.4512 21.7148 81.4844 21.3164 80.5117 20.9766C79.5391 20.6367 78.584 20.4668 77.6465 20.4668ZM113.014 29.1152C113.014 33.3691 111.959 36.6387 109.85 38.9238C107.74 41.209 104.717 42.3516 100.779 42.3516C96.8418 42.3516 93.8184 41.209 91.709 38.9238C89.5996 36.6387 88.5449 33.3574 88.5449 29.0801C88.5449 24.8027 89.5996 21.5391 91.709 19.2891C93.8301 17.0273 96.8652 15.8965 100.814 15.8965C104.764 15.8965 107.781 17.0332 109.867 19.3066C111.965 21.5801 113.014 24.8496 113.014 29.1152ZM94.2578 29.1152C94.2578 31.9863 94.8027 34.1484 95.8926 35.6016C96.9824 37.0547 98.6113 37.7812 100.779 37.7812C105.127 37.7812 107.301 34.8926 107.301 29.1152C107.301 23.3262 105.139 20.4316 100.814 20.4316C98.6465 20.4316 97.0117 21.1641 95.9102 22.6289C94.8086 24.082 94.2578 26.2441 94.2578 29.1152ZM133 16.3008H138.502L129.766 42H123.824L115.105 16.3008H120.607L125.441 31.5938C125.711 32.4961 125.986 33.5508 126.268 34.7578C126.561 35.9531 126.742 36.7852 126.812 37.2539C126.941 36.1758 127.381 34.2891 128.131 31.5938L133 16.3008ZM141.754 42V16.3008H147.203V42H141.754ZM174.994 28.9043C174.994 33.1348 173.787 36.375 171.373 38.625C168.971 40.875 165.496 42 160.949 42H153.672V16.3008H161.74C165.936 16.3008 169.193 17.4082 171.514 19.623C173.834 21.8379 174.994 24.9316 174.994 28.9043ZM169.334 29.0449C169.334 23.5254 166.896 20.7656 162.021 20.7656H159.121V37.5H161.459C166.709 37.5 169.334 34.6816 169.334 29.0449ZM205.404 42L203.541 35.8828H194.172L192.309 42H186.438L195.508 16.1953H202.17L211.275 42H205.404ZM202.24 31.3125C200.518 25.7695 199.545 22.6348 199.322 21.9082C199.111 21.1816 198.959 20.6074 198.865 20.1855C198.479 21.6855 197.371 25.3945 195.543 31.3125H202.24ZM219.977 28.3945H221.77C223.445 28.3945 224.699 28.0664 225.531 27.4102C226.363 26.7422 226.779 25.7754 226.779 24.5098C226.779 23.2324 226.428 22.2891 225.725 21.6797C225.033 21.0703 223.943 20.7656 222.455 20.7656H219.977V28.3945ZM232.281 24.3164C232.281 27.082 231.414 29.1973 229.68 30.6621C227.957 32.127 225.502 32.8594 222.314 32.8594H219.977V42H214.527V16.3008H222.736C225.854 16.3008 228.221 16.9746 229.838 18.3223C231.467 19.6582 232.281 21.6562 232.281 24.3164ZM242.582 28.3945H244.375C246.051 28.3945 247.305 28.0664 248.137 27.4102C248.969 26.7422 249.385 25.7754 249.385 24.5098C249.385 23.2324 249.033 22.2891 248.33 21.6797C247.639 21.0703 246.549 20.7656 245.061 20.7656H242.582V28.3945ZM254.887 24.3164C254.887 27.082 254.02 29.1973 252.285 30.6621C250.562 32.127 248.107 32.8594 244.92 32.8594H242.582V42H237.133V16.3008H245.342C248.459 16.3008 250.826 16.9746 252.443 18.3223C254.072 19.6582 254.887 21.6562 254.887 24.3164Z" fill="#02C39A"/>
<path d="M57.9841 26.5766C58.1959 29.3176 56.2676 31.751 53.6786 32.0108C51.6964 32.2095 49.9034 31.076 49.0751 29.3056L46.7254 29.5127L44.9515 30.3686C44.5458 30.5637 44.2728 30.9515 44.2106 31.3967C44.043 32.5973 43.739 33.7536 43.3165 34.8524C43.1728 35.2246 43.198 35.64 43.3931 35.9871L44.0251 37.117L45.7822 38.296C46.7087 37.9417 47.7871 38.0267 48.6741 38.6216C50.1775 39.6307 50.5378 41.7074 49.4198 43.1689C48.4574 44.4281 46.668 44.774 45.3058 43.9649C44.438 43.4502 43.9138 42.5955 43.7857 41.6823L41.8382 40.3764L40.6125 40.2267C40.1912 40.1753 39.7723 40.3201 39.4658 40.6134C38.4317 41.5985 37.2634 42.4447 35.9934 43.1222C35.5661 43.3496 35.292 43.7865 35.2621 44.2689L35.1065 46.7514L35.8773 49.8096C37.1892 50.1759 38.2737 51.2161 38.6304 52.6309C39.169 54.7699 37.8404 56.94 35.6739 57.4223C33.7192 57.858 31.7143 56.7185 31.0931 54.8142C30.6095 53.3275 31.0536 51.7906 32.0758 50.7864L31.3013 47.7102L30.1056 45.7878C29.7848 45.2719 29.2174 44.9667 28.6094 44.9679C28.6058 44.9679 28.6034 44.9679 28.5998 44.9679C27.5525 44.9679 26.5279 44.8638 25.5368 44.6687C24.9467 44.5514 24.3374 44.7381 23.9233 45.175L22.3433 46.8424L20.5742 50.5123C20.9883 51.3537 21.0254 52.3699 20.5873 53.2808C19.7997 54.9135 17.7912 55.5623 16.1861 54.6597C14.812 53.8853 14.2171 52.176 14.8156 50.7157C15.2237 49.7199 16.07 49.0544 17.0275 48.8317L18.8074 45.1379L19.1569 42.659C19.2204 42.2017 19.0456 41.7409 18.6865 41.4512C17.2705 40.3022 16.0568 38.9149 15.1076 37.3492C14.8718 36.9602 14.4481 36.7244 13.9932 36.7208L11.5179 36.6969L8.80799 37.5491C8.61767 39.2345 7.4638 40.7319 5.74256 41.2729C3.43003 42.0006 0.966674 40.7295 0.216177 38.4313C-0.53432 36.1343 0.733266 33.6219 3.02785 32.863C4.63417 32.3316 6.32189 32.7733 7.4638 33.8589L10.3401 32.954L12.4408 31.4566C12.7532 31.2352 12.9196 30.8641 12.8884 30.4835C12.8537 30.0609 12.8358 29.6348 12.8358 29.2039C12.8358 26.8626 13.3505 24.6399 14.2697 22.6409C14.4038 22.3477 14.4002 22.0101 14.259 21.7205L13.6365 20.4481L11.9476 19.1733C11.002 19.4762 9.93074 19.3313 9.0785 18.6886C7.63257 17.5969 7.38839 15.5034 8.58535 14.1066C9.61594 12.9036 11.4222 12.6571 12.7376 13.5404C13.5755 14.103 14.0519 14.984 14.1285 15.9032L16.0005 17.3157L17.887 17.652C19.2599 16.3772 20.8602 15.3443 22.6186 14.6201L23.0614 11.9293L22.5025 9.14996C20.8483 8.72384 19.5053 7.45626 19.1438 5.76614C18.6339 3.3782 20.2749 1.0525 22.8101 0.572516C25.3441 0.0925336 27.8122 1.63781 28.3221 4.02576C28.7039 5.81283 27.8816 7.56399 26.3806 8.53353L26.9085 11.1549L28.2048 13.2232C28.2898 13.3585 28.4382 13.4399 28.5974 13.4399H28.5998C31.5683 13.4399 34.3476 14.2658 36.7212 15.6998C36.8517 15.7776 37.0121 15.7883 37.1497 15.7237L39.1798 14.7829L41.5498 12.219C41.4073 11.2997 41.6695 10.3254 42.3505 9.58925C43.581 8.25942 45.6877 8.22591 46.9588 9.55573C48.0732 10.7228 48.1163 12.5841 47.0582 13.8026C46.3735 14.5914 45.3908 14.9552 44.4309 14.8834L42.0609 17.4473L41.2912 19.5181C41.2373 19.6617 41.2613 19.8221 41.3511 19.9466C42.2859 21.2297 43.0316 22.6589 43.5463 24.1934C43.6887 24.6147 44.0239 24.9427 44.4524 25.0636L46.3795 25.6034L48.8836 25.382C49.4976 23.6117 51.0309 22.2723 52.9137 22.0832C55.5028 21.8234 57.7734 23.8355 57.9841 26.5766Z" fill="#028090"/>
<path d="M28.5998 40.8767C35.0465 40.8767 40.2726 35.6506 40.2726 29.2039C40.2726 22.7572 35.0465 17.5311 28.5998 17.5311C22.1531 17.5311 16.927 22.7572 16.927 29.2039C16.927 35.6506 22.1531 40.8767 28.5998 40.8767Z" fill="#02C39A"/>
<path d="M20.4849 29.2039C20.4849 23.3619 24.7762 18.5224 30.3787 17.6658C29.7987 17.5771 29.2046 17.5311 28.5998 17.5311C22.153 17.5311 16.927 22.7571 16.927 29.2039C16.927 35.6508 22.153 40.8767 28.5998 40.8767C29.2046 40.8767 29.7987 40.8308 30.3787 40.7421C24.7763 39.8853 20.4849 35.0458 20.4849 29.2039Z" fill="#00A896"/>
<path d="M8.95963 7.98281C10.7955 7.98281 12.2837 6.49456 12.2837 4.65872C12.2837 2.82287 10.7955 1.33463 8.95963 1.33463C7.12379 1.33463 5.63554 2.82287 5.63554 4.65872C5.63554 6.49456 7.12379 7.98281 8.95963 7.98281Z" fill="#028090"/>
<path d="M8.05102 50.671C9.26361 50.671 10.2466 49.688 10.2466 48.4754C10.2466 47.2628 9.26361 46.2798 8.05102 46.2798C6.83842 46.2798 5.85542 47.2628 5.85542 48.4754C5.85542 49.688 6.83842 50.671 8.05102 50.671Z" fill="#028090"/>
<path d="M48.3635 55.3161C50.1495 55.3161 51.5974 53.8682 51.5974 52.0821C51.5974 50.296 50.1495 48.8481 48.3635 48.8481C46.5774 48.8481 45.1295 50.296 45.1295 52.0821C45.1295 53.8682 46.5774 55.3161 48.3635 55.3161Z" fill="#028090"/>
<path d="M25.0168 28.9998C26.6819 28.9998 28.0318 27.65 28.0318 25.9848C28.0318 24.3196 26.6819 22.9698 25.0168 22.9698C23.3516 22.9698 22.0017 24.3196 22.0017 25.9848C22.0017 27.65 23.3516 28.9998 25.0168 28.9998Z" fill="#028090"/>
<path d="M27.4371 37.4019C28.5705 37.4019 29.4893 36.4831 29.4893 35.3497C29.4893 34.2163 28.5705 33.2975 27.4371 33.2975C26.3037 33.2975 25.3849 34.2163 25.3849 35.3497C25.3849 36.4831 26.3037 37.4019 27.4371 37.4019Z" fill="#028090"/>
<path d="M33.8811 30.9272C34.8328 30.9272 35.6043 30.1556 35.6043 29.2039C35.6043 28.2522 34.8328 27.4806 33.8811 27.4806C32.9293 27.4806 32.1578 28.2522 32.1578 29.2039C32.1578 30.1556 32.9293 30.9272 33.8811 30.9272Z" fill="#028090"/>
</svg>
